<?xml version="1.0" encoding="UTF-8"?>
<svg width="256" height="256" viewBox="0 0 256 256" xmlns="http://www.w3.org/2000/svg">
  <!-- Background with subtle gradient -->
  <defs>
    <linearGradient id="bgGradient" x1="0%" y1="0%" x2="100%" y2="100%">
      <stop offset="0%" style="stop-color:#f8f9fa;stop-opacity:1" />
      <stop offset="100%" style="stop-color:#e9ecef;stop-opacity:1" />
    </linearGradient>
    <linearGradient id="berryGradient" x1="0%" y1="0%" x2="100%" y2="100%">
      <stop offset="0%" style="stop-color:#ff4757;stop-opacity:1" />
      <stop offset="100%" style="stop-color:#c44569;stop-opacity:1" />
    </linearGradient>
    <linearGradient id="clipboardGradient" x1="0%" y1="0%" x2="100%" y2="100%">
      <stop offset="0%" style="stop-color:#ffffff;stop-opacity:1" />
      <stop offset="100%" style="stop-color:#f8f9fa;stop-opacity:1" />
    </linearGradient>
  </defs>
  
  <!-- Background circle -->
  <circle cx="128" cy="128" r="120" fill="url(#bgGradient)" stroke="#dee2e6" stroke-width="4"/>
  
  <!-- Clipboard/Dashboard base -->
  <rect x="90" y="60" width="76" height="100" rx="8" ry="8" fill="url(#clipboardGradient)" stroke="#6c757d" stroke-width="2"/>
  
  <!-- Clipboard clip -->
  <rect x="110" y="50" width="36" height="20" rx="4" ry="4" fill="#6c757d"/>
  
  <!-- Clipboard lines (representing data/forms) -->
  <line x1="100" y1="85" x2="156" y2="85" stroke="#dee2e6" stroke-width="2" stroke-linecap="round"/>
  <line x1="100" y1="95" x2="146" y2="95" stroke="#dee2e6" stroke-width="2" stroke-linecap="round"/>
  <line x1="100" y1="105" x2="156" y2="105" stroke="#dee2e6" stroke-width="2" stroke-linecap="round"/>
  <line x1="100" y1="115" x2="140" y2="115" stroke="#dee2e6" stroke-width="2" stroke-linecap="round"/>
  <line x1="100" y1="125" x2="156" y2="125" stroke="#dee2e6" stroke-width="2" stroke-linecap="round"/>
  
  <!-- Berry (strawberry) -->
  <ellipse cx="128" cy="180" rx="32" ry="28" fill="url(#berryGradient)" stroke="#c44569" stroke-width="2"/>
  
  <!-- Berry leaves -->
  <path d="M 108 170 Q 128 150 148 170 Q 138 160 128 170 Q 118 160 108 170" fill="#28a745" stroke="#1e7e34" stroke-width="1.5"/>
  <path d="M 112 168 Q 128 148 144 168 Q 136 158 128 168 Q 120 158 112 168" fill="#28a745" stroke="#1e7e34" stroke-width="1.5"/>
  
  <!-- Berry seeds -->
  <circle cx="118" cy="175" r="2" fill="#fff5f5"/>
  <circle cx="128" cy="172" r="2" fill="#fff5f5"/>
  <circle cx="138" cy="175" r="2" fill="#fff5f5"/>
  <circle cx="123" cy="182" r="2" fill="#fff5f5"/>
  <circle cx="133" cy="182" r="2" fill="#fff5f5"/>
  <circle cx="128" cy="188" r="2" fill="#fff5f5"/>
  
  <!-- Small chart/graph symbol on clipboard -->
  <g transform="translate(110, 135)">
    <rect x="0" y="8" width="3" height="6" fill="#28a745"/>
    <rect x="5" y="4" width="3" height="10" fill="#ffc107"/>
    <rect x="10" y="0" width="3" height="14" fill="#17a2b8"/>
  </g>
</svg>