<?xml version="1.0" encoding="UTF-8"?>
<svg width="256" height="256" viewBox="0 0 256 256" xmlns="http://www.w3.org/2000/svg">
  <!-- Background with professional gradient -->
  <defs>
    <linearGradient id="bgGradient" x1="0%" y1="0%" x2="100%" y2="100%">
      <stop offset="0%" style="stop-color:#f8fafc;stop-opacity:1" />
      <stop offset="100%" style="stop-color:#e2e8f0;stop-opacity:1" />
    </linearGradient>
    <linearGradient id="productGradient" x1="0%" y1="0%" x2="100%" y2="100%">
      <stop offset="0%" style="stop-color:#22c55e;stop-opacity:1" />
      <stop offset="100%" style="stop-color:#16a34a;stop-opacity:1" />
    </linearGradient>
    <linearGradient id="factoryGradient" x1="0%" y1="0%" x2="100%" y2="100%">
      <stop offset="0%" style="stop-color:#1e40af;stop-opacity:1" />
      <stop offset="100%" style="stop-color:#1e3a8a;stop-opacity:1" />
    </linearGradient>
    <linearGradient id="conveyorGradient" x1="0%" y1="0%" x2="100%" y2="100%">
      <stop offset="0%" style="stop-color:#f97316;stop-opacity:1" />
      <stop offset="100%" style="stop-color:#ea580c;stop-opacity:1" />
    </linearGradient>
  </defs>
  
  <!-- Background circle -->
  <circle cx="128" cy="128" r="120" fill="url(#bgGradient)" stroke="#cbd5e1" stroke-width="4"/>
  
  <!-- Factory/Processing Building -->
  <rect x="60" y="100" width="80" height="60" fill="url(#factoryGradient)" stroke="#1e3a8a" stroke-width="2"/>
  
  <!-- Factory roof -->
  <polygon points="50,100 128,70 206,100" fill="#1e3a8a" stroke="#1e3a8a" stroke-width="2"/>
  
  <!-- Factory windows -->
  <rect x="75" y="115" width="12" height="12" fill="#60a5fa" stroke="#3b82f6" stroke-width="1"/>
  <rect x="95" y="115" width="12" height="12" fill="#60a5fa" stroke="#3b82f6" stroke-width="1"/>
  <rect x="115" y="115" width="12" height="12" fill="#60a5fa" stroke="#3b82f6" stroke-width="1"/>
  <rect x="135" y="115" width="12" height="12" fill="#60a5fa" stroke="#3b82f6" stroke-width="1"/>
  
  <!-- Conveyor belt -->
  <rect x="40" y="140" width="120" height="8" fill="url(#conveyorGradient)" stroke="#ea580c" stroke-width="1"/>
  <rect x="40" y="144" width="120" height="4" fill="#dc2626" stroke="#b91c1c" stroke-width="1"/>
  
  <!-- Conveyor belt rollers -->
  <circle cx="50" cy="148" r="4" fill="#6b7280"/>
  <circle cx="80" cy="148" r="4" fill="#6b7280"/>
  <circle cx="110" cy="148" r="4" fill="#6b7280"/>
  <circle cx="140" cy="148" r="4" fill="#6b7280"/>
  <circle cx="170" cy="148" r="4" fill="#6b7280"/>
  
  <!-- Generic Product (tomato/apple/fish silhouette) -->
  <ellipse cx="128" cy="200" rx="28" ry="24" fill="url(#productGradient)" stroke="#16a34a" stroke-width="2"/>
  
  <!-- Product details (generic) -->
  <circle cx="120" cy="195" r="3" fill="#ffffff" opacity="0.8"/>
  <circle cx="128" cy="192" r="3" fill="#ffffff" opacity="0.8"/>
  <circle cx="136" cy="195" r="3" fill="#ffffff" opacity="0.8"/>
  <circle cx="124" cy="202" r="3" fill="#ffffff" opacity="0.8"/>
  <circle cx="132" cy="202" r="3" fill="#ffffff" opacity="0.8"/>
  
  <!-- Product stem/leaf -->
  <path d="M 128 176 Q 128 170 128 176 Q 132 172 128 176 Q 124 172 128 176" fill="#22c55e" stroke="#16a34a" stroke-width="1.5"/>
  
  <!-- Data/Management symbols on factory -->
  <g transform="translate(85, 130)">
    <!-- Chart bars -->
    <rect x="0" y="8" width="4" height="6" fill="#22c55e"/>
    <rect x="6" y="4" width="4" height="10" fill="#f97316"/>
    <rect x="12" y="2" width="4" height="12" fill="#3b82f6"/>
  </g>
  
  <!-- Processing arrows -->
  <path d="M 100 120 L 110 120" stroke="#ffffff" stroke-width="2" stroke-linecap="round" marker-end="url(#arrowhead)"/>
  <path d="M 100 125 L 110 125" stroke="#ffffff" stroke-width="2" stroke-linecap="round" marker-end="url(#arrowhead)"/>
  
  <!-- Arrow marker definition -->
  <defs>
    <marker id="arrowhead" markerWidth="10" markerHeight="7" refX="9" refY="3.5" orient="auto">
      <polygon points="0 0, 10 3.5, 0 7" fill="#ffffff"/>
    </marker>
  </defs>
</svg>